Toren-Proportional-BF.ufo
<glyph name="slash" format="2">
  <advance width="416"/>
  <unicode hex="002F"/>
  <outline>
    <contour>
      <point x="352" y="768" type="line"/>
      <point x="0" y="-64" type="line"/>
      <point x="64" y="-64" type="line"/>
      <point x="416" y="768" type="line"/>
    </contour>
  </outline>
</glyph>
<glyph name="greater" format="2">
  <advance width="480"/>
  <unicode hex="003E"/>
  <outline>
    <contour>
      <point x="32" y="64" type="line"/>
      <point x="32" y="0" type="line"/>
      <point x="448" y="208" type="line"/>
      <point x="448" y="272" type="line"/>
      <point x="32" y="480" type="line"/>
      <point x="32" y="416" type="line"/>
      <point x="384" y="240" type="line"/>
    </contour>
  </outline>
</glyph>
<glyph name="A" format="2">
  <advance width="700"/>
  <unicode hex="0041"/>
  <outline>
    <contour>
      <point x="431" y="276" type="line"/>
      <point x="228" y="276" type="line"/>
      <point x="328" y="577" type="line"/>
    </contour>
    <contour>
      <point x="210" y="24" type="line"/>
      <point x="146" y="48" type="line"/>
      <point x="208" y="228" type="line"/>
      <point x="449" y="228" type="line"/>
      <point x="511" y="48" type="line"/>
      <point x="447" y="24" type="line"/>
      <point x="447" y="0" type="line"/>
      <point x="675" y="0" type="line"/>
      <point x="675" y="24" type="line"/>
      <point x="611" y="48" type="line"/>
      <point x="364" y="729" type="line"/>
      <point x="280" y="686" type="line"/>
      <point x="300" y="637" type="line"/>
      <point x="90" y="48" type="line"/>
      <point x="26" y="24" type="line"/>
      <point x="26" y="0" type="line"/>
      <point x="210" y="0" type="line"/>
    </contour>
  </outline>
</glyph>
<glyph name="E" format="2">
  <advance width="592"/>
  <unicode hex="0045"/>
  <outline>
    <contour>
      <point x="572" y="210" type="line"/>
      <point x="544" y="224" type="line"/>
      <point x="456" y="48" type="line"/>
      <point x="184" y="48" type="line"/>
      <point x="184" y="352" type="line"/>
      <point x="356" y="352" type="line"/>
      <point x="388" y="272" type="line"/>
      <point x="412" y="272" type="line"/>
      <point x="412" y="480" type="line"/>
      <point x="388" y="480" type="line"/>
      <point x="356" y="400" type="line"/>
      <point x="184" y="400" type="line"/>
      <point x="184" y="656" type="line"/>
      <point x="440" y="656" type="line"/>
      <point x="512" y="512" type="line"/>
      <point x="540" y="526" type="line"/>
      <point x="504" y="704" type="line"/>
      <point x="36" y="704" type="line"/>
      <point x="36" y="680" type="line"/>
      <point x="100" y="656" type="line"/>
      <point x="100" y="48" type="line"/>
      <point x="36" y="24" type="line"/>
      <point x="36" y="0" type="line"/>
      <point x="528" y="0" type="line"/>
    </contour>
  </outline>
</glyph>
<glyph name="F" format="2">
  <advance width="560"/>
  <unicode hex="0046"/>
  <outline>
    <contour>
      <point x="248" y="24" type="line"/>
      <point x="184" y="48" type="line"/>
      <point x="184" y="352" type="line"/>
      <point x="356" y="352" type="line"/>
      <point x="388" y="272" type="line"/>
      <point x="412" y="272" type="line"/>
      <point x="412" y="480" type="line"/>
      <point x="388" y="480" type="line"/>
      <point x="356" y="400" type="line"/>
      <point x="184" y="400" type="line"/>
      <point x="184" y="656" type="line"/>
      <point x="440" y="656" type="line"/>
      <point x="512" y="512" type="line"/>
      <point x="540" y="526" type="line"/>
      <point x="504" y="704" type="line"/>
      <point x="36" y="704" type="line"/>
      <point x="36" y="680" type="line"/>
      <point x="100" y="656" type="line"/>
      <point x="100" y="48" type="line"/>
      <point x="36" y="24" type="line"/>
      <point x="36" y="0" type="line"/>
      <point x="248" y="0" type="line"/>
    </contour>
  </outline>
</glyph>
<glyph name="H" format="2">
  <advance width="664"/>
  <unicode hex="0048"/>
  <outline>
    <contour>
      <point x="248" y="24" type="line"/>
      <point x="184" y="48" type="line"/>
      <point x="184" y="352" type="line"/>
      <point x="480" y="352" type="line"/>
      <point x="480" y="48" type="line"/>
      <point x="416" y="24" type="line"/>
      <point x="416" y="0" type="line"/>
      <point x="628" y="0" type="line"/>
      <point x="628" y="24" type="line"/>
      <point x="564" y="48" type="line"/>
      <point x="564" y="656" type="line"/>
      <point x="628" y="680" type="line"/>
      <point x="628" y="704" type="line"/>
      <point x="416" y="704" type="line"/>
      <point x="416" y="680" type="line"/>
      <point x="480" y="656" type="line"/>
      <point x="480" y="400" type="line"/>
      <point x="184" y="400" type="line"/>
      <point x="184" y="656" type="line"/>
      <point x="248" y="680" type="line"/>
      <point x="248" y="704" type="line"/>
      <point x="36" y="704" type="line"/>
      <point x="36" y="680" type="line"/>
      <point x="100" y="656" type="line"/>
      <point x="100" y="48" type="line"/>
      <point x="36" y="24" type="line"/>
      <point x="36" y="0" type="line"/>
      <point x="248" y="0" type="line"/>
    </contour>
  </outline>
</glyph>
<glyph name="I" format="2">
  <advance width="284"/>
  <unicode hex="0049"/>
  <outline>
    <contour>
      <point x="248" y="24" type="line"/>
      <point x="184" y="48" type="line"/>
      <point x="184" y="656" type="line"/>
      <point x="248" y="680" type="line"/>
      <point x="248" y="704" type="line"/>
      <point x="36" y="704" type="line"/>
      <point x="36" y="680" type="line"/>
      <point x="100" y="656" type="line"/>
      <point x="100" y="48" type="line"/>
      <point x="36" y="24" type="line"/>
      <point x="36" y="0" type="line"/>
      <point x="248" y="0" type="line"/>
    </contour>
  </outline>
</glyph>
<glyph name="L" format="2">
  <advance width="560"/>
  <unicode hex="004C"/>
  <outline>
    <contour>
      <point x="540" y="210" type="line"/>
      <point x="512" y="224" type="line"/>
      <point x="424" y="48" type="line"/>
      <point x="184" y="48" type="line"/>
      <point x="184" y="656" type="line"/>
      <point x="248" y="680" type="line"/>
      <point x="248" y="704" type="line"/>
      <point x="36" y="704" type="line"/>
      <point x="36" y="680" type="line"/>
      <point x="100" y="656" type="line"/>
      <point x="100" y="48" type="line"/>
      <point x="36" y="24" type="line"/>
      <point x="36" y="0" type="line"/>
      <point x="496" y="0" type="line"/>
    </contour>
  </outline>
</glyph>
<glyph name="P" format="2">
  <advance width="554"/>
  <unicode hex="0050"/>
  <outline>
    <contour>
      <point x="184" y="656" type="line"/>
      <point x="288" y="656" type="line" smooth="yes"/>
      <point x="360" y="656"/>
      <point x="424" y="608"/>
      <point x="424" y="520" type="curve" smooth="yes"/>
      <point x="424" y="432"/>
      <point x="360" y="384"/>
      <point x="288" y="384" type="curve" smooth="yes"/>
      <point x="184" y="384" type="line"/>
    </contour>
    <contour>
      <point x="232" y="24" type="line"/>
      <point x="184" y="48" type="line"/>
      <point x="184" y="336" type="line"/>
      <point x="316" y="336" type="line" smooth="yes"/>
      <point x="421.0" y="336"/>
      <point x="515.0" y="400.0"/>
      <point x="515" y="520" type="curve" smooth="yes"/>
      <point x="515.0" y="640.0"/>
      <point x="421.0" y="704"/>
      <point x="316" y="704" type="curve" smooth="yes"/>
      <point x="36" y="704" type="line"/>
      <point x="36" y="680" type="line"/>
      <point x="100" y="656" type="line"/>
      <point x="100" y="48" type="line"/>
      <point x="36" y="24" type="line"/>
      <point x="36" y="0" type="line"/>
      <point x="232" y="0" type="line"/>
    </contour>
  </outline>
</glyph>
<glyph name="T" format="2">
  <advance width="624"/>
  <unicode hex="0054"/>
  <outline>
    <contour>
      <point x="418" y="24" type="line"/>
      <point x="354" y="48" type="line"/>
      <point x="354" y="656" type="line"/>
      <point x="500" y="656" type="line"/>
      <point x="572" y="528" type="line"/>
      <point x="604" y="544" type="line"/>
      <point x="556" y="704" type="line"/>
      <point x="68" y="704" type="line"/>
      <point x="20" y="544" type="line"/>
      <point x="52" y="528" type="line"/>
      <point x="124" y="656" type="line"/>
      <point x="270" y="656" type="line"/>
      <point x="270" y="48" type="line"/>
      <point x="206" y="24" type="line"/>
      <point x="206" y="0" type="line"/>
      <point x="418" y="0" type="line"/>
    </contour>
  </outline>
</glyph>
<glyph name="U" format="2">
  <advance width="616"/>
  <unicode hex="0055"/>
  <outline>
    <contour>
      <point x="476" y="186" type="line" smooth="yes"/>
      <point x="476" y="69.44594594594597"/>
      <point x="388.0" y="36.0"/>
      <point x="326" y="36" type="curve" smooth="yes"/>
      <point x="278.0" y="36.0"/>
      <point x="176" y="50.18918918918919"/>
      <point x="176" y="186" type="curve" smooth="yes"/>
      <point x="176" y="656" type="line"/>
      <point x="240" y="680" type="line"/>
      <point x="240" y="704" type="line"/>
      <point x="20" y="704" type="line"/>
      <point x="20" y="680" type="line"/>
      <point x="84" y="656" type="line"/>
      <point x="84" y="210" type="line" smooth="yes"/>
      <point x="84" y="26.375"/>
      <point x="214.0" y="-16.0"/>
      <point x="310" y="-16" type="curve" smooth="yes"/>
      <point x="420.0" y="-16.0"/>
      <point x="532" y="43.526785714285694"/>
      <point x="532" y="210" type="curve" smooth="yes"/>
      <point x="532" y="656" type="line"/>
      <point x="596" y="680" type="line"/>
      <point x="596" y="704" type="line"/>
      <point x="412" y="704" type="line"/>
      <point x="412" y="680" type="line"/>
      <point x="476" y="656" type="line"/>
    </contour>
  </outline>
</glyph>
<glyph name="backslash" format="2">
  <advance width="416"/>
  <unicode hex="005C"/>
  <outline>
    <contour>
      <point x="64" y="768" type="line"/>
      <point x="0" y="768" type="line"/>
      <point x="352" y="-64" type="line"/>
      <point x="416" y="-64" type="line"/>
    </contour>
  </outline>
</glyph>
<glyph name="a" format="2">
  <advance width="461"/>
  <unicode hex="0061"/>
  <outline>
    <contour>
      <point x="201" y="35" type="curve"/>
      <point x="152" y="35"/>
      <point x="121" y="71"/>
      <point x="121" y="128" type="curve" smooth="yes"/>
      <point x="121" y="201"/>
      <point x="172" y="240"/>
      <point x="270" y="240" type="curve" smooth="yes"/>
      <point x="310" y="240" type="line"/>
      <point x="310" y="96" type="line"/>
      <point x="265" y="51"/>
      <point x="236" y="35"/>
    </contour>
    <contour>
      <point x="322" y="50" type="curve"/>
      <point x="322" y="0" type="line"/>
      <point x="426" y="0" type="line"/>
      <point x="426" y="24" type="line"/>
      <point x="394" y="56" type="line"/>
      <point x="394" y="320" type="line" smooth="yes"/>
      <point x="394" y="444"/>
      <point x="344" y="496"/>
      <point x="217" y="496" type="curve" smooth="yes"/>
      <point x="131" y="496"/>
      <point x="54" y="437"/>
      <point x="54" y="371" type="curve" smooth="yes"/>
      <point x="54" y="337"/>
      <point x="77" y="313"/>
      <point x="110" y="313" type="curve"/>
      <point x="142" y="313"/>
      <point x="166" y="337"/>
      <point x="166" y="369" type="curve"/>
      <point x="166" y="390"/>
      <point x="157" y="407"/>
      <point x="142" y="417" type="curve"/>
      <point x="158" y="437"/>
      <point x="181" y="448"/>
      <point x="218" y="448" type="curve"/>
      <point x="281" y="448"/>
      <point x="310" y="418"/>
      <point x="310" y="352" type="curve" smooth="yes"/>
      <point x="310" y="288" type="line"/>
      <point x="270" y="288" type="line" smooth="yes"/>
      <point x="124" y="288"/>
      <point x="30" y="225"/>
      <point x="30" y="128" type="curve" smooth="yes"/>
      <point x="30" y="42"/>
      <point x="94" y="-16"/>
      <point x="188" y="-16" type="curve"/>
      <point x="234" y="-16"/>
      <point x="277" y="5"/>
    </contour>
  </outline>
</glyph>
<glyph name="b" format="2">
  <advance width="537"/>
  <unicode hex="0062"/>
  <outline>
    <contour>
      <point x="158" y="704" type="line"/>
      <point x="10" y="704" type="line"/>
      <point x="10" y="680" type="line"/>
      <point x="74" y="648" type="line"/>
      <point x="74" y="32" type="line"/>
      <point x="158" y="2" type="line" smooth="yes"/>
      <point x="182" y="-7"/>
      <point x="241" y="-16"/>
      <point x="273" y="-16" type="curve" smooth="yes"/>
      <point x="404" y="-16"/>
      <point x="497" y="90"/>
      <point x="497" y="240" type="curve" smooth="yes"/>
      <point x="497" y="390"/>
      <point x="404" y="496"/>
      <point x="273" y="496" type="curve" smooth="yes"/>
      <point x="234" y="496"/>
      <point x="195" y="479"/>
      <point x="158" y="446" type="curve"/>
    </contour>
    <contour>
      <point x="274" y="449" type="curve" smooth="yes"/>
      <point x="352" y="449"/>
      <point x="401" y="369"/>
      <point x="401" y="240" type="curve" smooth="yes"/>
      <point x="401" y="112"/>
      <point x="353" y="33"/>
      <point x="274" y="33" type="curve" smooth="yes"/>
      <point x="225" y="33"/>
      <point x="200" y="45"/>
      <point x="158" y="87" type="curve"/>
      <point x="158" y="401" type="line"/>
      <point x="190" y="433"/>
      <point x="229" y="449"/>
    </contour>
  </outline>
</glyph>
<glyph name="d" format="2">
  <advance width="557"/>
  <unicode hex="0064"/>
  <outline>
    <contour>
      <point x="379" y="80" type="line"/>
      <point x="379" y="656" type="line"/>
      <point x="315" y="680" type="line"/>
      <point x="315" y="704" type="line"/>
      <point x="463" y="704" type="line"/>
      <point x="463" y="48" type="line"/>
      <point x="527" y="24" type="line"/>
      <point x="527" y="0" type="line"/>
      <point x="391" y="0" type="line"/>
      <point x="391" y="44" type="line"/>
    </contour>
    <contour>
      <point x="388" y="477" type="line"/>
      <point x="391" y="383" type="line"/>
      <point x="341" y="436"/>
      <point x="315" y="449"/>
      <point x="263" y="449" type="curve" smooth="yes"/>
      <point x="184" y="449"/>
      <point x="136" y="370"/>
      <point x="136" y="242" type="curve" smooth="yes"/>
      <point x="136" y="113"/>
      <point x="185" y="33"/>
      <point x="263" y="33" type="curve" smooth="yes"/>
      <point x="308" y="33"/>
      <point x="347" y="49"/>
      <point x="380" y="82" type="curve"/>
      <point x="391" y="46" type="line"/>
      <point x="361" y="10"/>
      <point x="311" y="-14"/>
      <point x="264" y="-14" type="curve" smooth="yes"/>
      <point x="133" y="-14"/>
      <point x="40" y="92"/>
      <point x="40" y="242" type="curve" smooth="yes"/>
      <point x="40" y="392"/>
      <point x="133" y="498"/>
      <point x="264" y="498" type="curve" smooth="yes"/>
      <point x="298" y="498"/>
      <point x="358" y="489"/>
      <point x="380" y="480" type="curve" smooth="yes"/>
    </contour>
  </outline>
</glyph>
<glyph name="f" format="2">
  <advance width="330"/>
  <unicode hex="0066"/>
  <outline>
    <contour>
      <point x="242" y="24" type="line"/>
      <point x="178" y="48" type="line"/>
      <point x="178" y="432" type="line"/>
      <point x="314" y="432" type="line"/>
      <point x="314" y="480" type="line"/>
      <point x="178" y="480" type="line"/>
      <point x="178" y="576" type="line" smooth="yes"/>
      <point x="178" y="642"/>
      <point x="186" y="698"/>
      <point x="222" y="698" type="curve"/>
      <point x="220" y="692"/>
      <point x="220" y="686"/>
      <point x="220" y="680" type="curve" smooth="yes"/>
      <point x="220" y="648"/>
      <point x="242" y="624"/>
      <point x="274" y="624" type="curve" smooth="yes"/>
      <point x="306" y="624"/>
      <point x="330" y="652"/>
      <point x="330" y="684" type="curve" smooth="yes"/>
      <point x="330" y="713"/>
      <point x="306" y="738"/>
      <point x="258" y="738" type="curve" smooth="yes"/>
      <point x="176" y="738"/>
      <point x="94" y="678"/>
      <point x="94" y="556" type="curve" smooth="yes"/>
      <point x="94" y="480" type="line"/>
      <point x="30" y="480" type="line"/>
      <point x="30" y="432" type="line"/>
      <point x="94" y="432" type="line"/>
      <point x="94" y="48" type="line"/>
      <point x="30" y="24" type="line"/>
      <point x="30" y="0" type="line"/>
      <point x="242" y="0" type="line"/>
    </contour>
  </outline>
</glyph>
<glyph name="g" format="2">
  <advance width="515"/>
  <unicode hex="0067"/>
  <outline>
    <contour>
      <point x="342" y="320" type="curve" smooth="yes"/>
      <point x="342" y="256"/>
      <point x="301" y="208"/>
      <point x="245" y="208" type="curve" smooth="yes"/>
      <point x="193" y="208"/>
      <point x="148" y="256"/>
      <point x="148" y="320" type="curve" smooth="yes"/>
      <point x="148" y="392"/>
      <point x="193" y="432"/>
      <point x="245" y="432" type="curve" smooth="yes"/>
      <point x="301" y="432"/>
      <point x="342" y="392"/>
    </contour>
    <contour>
      <point x="242" y="-208" type="curve" smooth="yes"/>
      <point x="382" y="-208"/>
      <point x="474" y="-160"/>
      <point x="474" y="-64" type="curve" smooth="yes"/>
      <point x="474" y="32"/>
      <point x="406" y="70"/>
      <point x="298" y="70" type="curve" smooth="yes"/>
      <point x="146" y="70" type="line" smooth="yes"/>
      <point x="126" y="70"/>
      <point x="106" y="91"/>
      <point x="106" y="115" type="curve" smooth="yes"/>
      <point x="106" y="139"/>
      <point x="122" y="160"/>
      <point x="146" y="160" type="curve" smooth="yes"/>
      <point x="245" y="160" type="line" smooth="yes"/>
      <point x="373.0" y="160.0"/>
      <point x="424" y="232"/>
      <point x="424" y="320" type="curve" smooth="yes"/>
      <point x="424" y="356"/>
      <point x="404" y="388"/>
      <point x="386" y="414" type="curve"/>
      <point x="470" y="456" type="line"/>
      <point x="470" y="480" type="line"/>
      <point x="245" y="480" type="line" smooth="yes"/>
      <point x="121.0" y="480.0"/>
      <point x="66" y="408"/>
      <point x="66" y="320" type="curve" smooth="yes"/>
      <point x="66" y="268"/>
      <point x="88" y="222"/>
      <point x="132" y="192" type="curve"/>
      <point x="80" y="190"/>
      <point x="42" y="148"/>
      <point x="42" y="96" type="curve" smooth="yes"/>
      <point x="42" y="42"/>
      <point x="74" y="0"/>
      <point x="138" y="0" type="curve" smooth="yes"/>
      <point x="242" y="0" type="line" smooth="yes"/>
      <point x="338" y="0"/>
      <point x="402" y="-24"/>
      <point x="402" y="-80" type="curve" smooth="yes"/>
      <point x="402" y="-136"/>
      <point x="330" y="-168"/>
      <point x="242" y="-168" type="curve" smooth="yes"/>
      <point x="186" y="-168"/>
      <point x="138" y="-154"/>
      <point x="116" y="-134" type="curve"/>
      <point x="130" y="-124"/>
      <point x="138" y="-108"/>
      <point x="138" y="-88" type="curve" smooth="yes"/>
      <point x="138" y="-56"/>
      <point x="114" y="-32"/>
      <point x="82" y="-32" type="curve" smooth="yes"/>
      <point x="50" y="-32"/>
      <point x="26" y="-56"/>
      <point x="26" y="-88" type="curve" smooth="yes"/>
      <point x="26" y="-152"/>
      <point x="110" y="-208"/>
    </contour>
  </outline>
</glyph>
<glyph name="h" format="2">
  <advance width="556"/>
  <unicode hex="0068"/>
  <outline>
    <contour>
      <point x="242" y="24" type="line"/>
      <point x="178" y="48" type="line"/>
      <point x="178" y="376" type="line"/>
      <point x="186" y="384" type="line" smooth="yes"/>
      <point x="222" y="420"/>
      <point x="262" y="440"/>
      <point x="294" y="440" type="curve" smooth="yes"/>
      <point x="342" y="440"/>
      <point x="378" y="400"/>
      <point x="378" y="320" type="curve" smooth="yes"/>
      <point x="378" y="48" type="line"/>
      <point x="314" y="24" type="line"/>
      <point x="314" y="0" type="line"/>
      <point x="526" y="0" type="line"/>
      <point x="526" y="24" type="line"/>
      <point x="462" y="48" type="line"/>
      <point x="462" y="304" type="line" smooth="yes"/>
      <point x="462" y="416"/>
      <point x="438" y="496"/>
      <point x="326" y="496" type="curve" smooth="yes"/>
      <point x="286" y="496"/>
      <point x="234" y="480"/>
      <point x="186" y="432" type="curve" smooth="yes"/>
      <point x="178" y="424" type="line"/>
      <point x="178" y="704" type="line"/>
      <point x="30" y="704" type="line"/>
      <point x="30" y="680" type="line"/>
      <point x="94" y="656" type="line"/>
      <point x="94" y="48" type="line"/>
      <point x="30" y="24" type="line"/>
      <point x="30" y="0" type="line"/>
      <point x="242" y="0" type="line"/>
    </contour>
  </outline>
</glyph>
<glyph name="l" format="2">
  <advance width="271"/>
  <unicode hex="006C"/>
  <outline>
    <contour>
      <point x="237" y="24" type="line"/>
      <point x="173" y="48" type="line"/>
      <point x="173" y="704" type="line"/>
      <point x="25" y="704" type="line"/>
      <point x="25" y="680" type="line"/>
      <point x="89" y="656" type="line"/>
      <point x="89" y="48" type="line"/>
      <point x="25" y="24" type="line"/>
      <point x="25" y="0" type="line"/>
      <point x="237" y="0" type="line"/>
    </contour>
  </outline>
</glyph>
<glyph name="m" format="2">
  <advance width="789"/>
  <unicode hex="006D"/>
  <outline>
    <contour>
      <point x="247" y="24" type="line"/>
      <point x="183" y="48" type="line"/>
      <point x="183" y="380" type="line"/>
      <point x="187" y="384" type="line" smooth="yes"/>
      <point x="227" y="424"/>
      <point x="267" y="440"/>
      <point x="297" y="440" type="curve" smooth="yes"/>
      <point x="339" y="440"/>
      <point x="355" y="400"/>
      <point x="355" y="352" type="curve"/>
      <point x="355" y="0" type="line"/>
      <point x="439" y="0" type="line"/>
      <point x="439" y="380" type="line"/>
      <point x="443" y="384" type="line" smooth="yes"/>
      <point x="483" y="424"/>
      <point x="523" y="440"/>
      <point x="553" y="440" type="curve" smooth="yes"/>
      <point x="595" y="440"/>
      <point x="611" y="400"/>
      <point x="611" y="352" type="curve" smooth="yes"/>
      <point x="611" y="0" type="line"/>
      <point x="695" y="0" type="line"/>
      <point x="695" y="336" type="line" smooth="yes"/>
      <point x="695" y="416"/>
      <point x="691" y="496"/>
      <point x="585" y="496" type="curve" smooth="yes"/>
      <point x="547" y="496"/>
      <point x="491" y="480"/>
      <point x="443" y="432" type="curve" smooth="yes"/>
      <point x="433" y="422" type="line"/>
      <point x="423" y="466"/>
      <point x="395" y="496"/>
      <point x="329" y="496" type="curve" smooth="yes"/>
      <point x="291" y="496"/>
      <point x="235" y="480"/>
      <point x="187" y="432" type="curve" smooth="yes"/>
      <point x="171" y="416" type="line"/>
      <point x="171" y="480" type="line"/>
      <point x="35" y="480" type="line"/>
      <point x="35" y="456" type="line"/>
      <point x="99" y="432" type="line"/>
      <point x="99" y="48" type="line"/>
      <point x="35" y="24" type="line"/>
      <point x="35" y="0" type="line"/>
      <point x="247" y="0" type="line"/>
    </contour>
    <contour>
      <point x="355" y="48" type="line"/>
      <point x="291" y="24" type="line"/>
      <point x="291" y="0" type="line"/>
      <point x="503" y="0" type="line"/>
      <point x="503" y="24" type="line"/>
      <point x="439" y="48" type="line"/>
    </contour>
    <contour>
      <point x="611" y="48" type="line"/>
      <point x="547" y="24" type="line"/>
      <point x="547" y="0" type="line"/>
      <point x="759" y="0" type="line"/>
      <point x="759" y="24" type="line"/>
      <point x="695" y="48" type="line"/>
    </contour>
  </outline>
</glyph>
<glyph name="n" format="2">
  <advance width="561"/>
  <unicode hex="006E"/>
  <outline>
    <contour>
      <point x="247" y="24" type="line"/>
      <point x="183" y="48" type="line"/>
      <point x="183" y="380" type="line"/>
      <point x="187" y="384" type="line" smooth="yes"/>
      <point x="223" y="420"/>
      <point x="267" y="440"/>
      <point x="299" y="440" type="curve" smooth="yes"/>
      <point x="347" y="440"/>
      <point x="383" y="400"/>
      <point x="383" y="320" type="curve" smooth="yes"/>
      <point x="383" y="48" type="line"/>
      <point x="319" y="24" type="line"/>
      <point x="319" y="0" type="line"/>
      <point x="531" y="0" type="line"/>
      <point x="531" y="24" type="line"/>
      <point x="467" y="48" type="line"/>
      <point x="467" y="304" type="line" smooth="yes"/>
      <point x="467" y="416"/>
      <point x="443" y="496"/>
      <point x="331" y="496" type="curve" smooth="yes"/>
      <point x="291" y="496"/>
      <point x="235" y="480"/>
      <point x="187" y="432" type="curve" smooth="yes"/>
      <point x="171" y="416" type="line"/>
      <point x="171" y="480" type="line"/>
      <point x="35" y="480" type="line"/>
      <point x="35" y="456" type="line"/>
      <point x="99" y="432" type="line"/>
      <point x="99" y="48" type="line"/>
      <point x="35" y="24" type="line"/>
      <point x="35" y="0" type="line"/>
      <point x="247" y="0" type="line"/>
    </contour>
  </outline>
</glyph>
<glyph name="p" format="2">
  <advance width="557"/>
  <unicode hex="0070"/>
  <outline>
    <contour>
      <point x="169" y="5" type="line"/>
      <point x="166" y="99" type="line"/>
      <point x="216" y="46"/>
      <point x="242" y="33"/>
      <point x="294" y="33" type="curve" smooth="yes"/>
      <point x="373" y="33"/>
      <point x="421" y="112"/>
      <point x="421" y="240" type="curve" smooth="yes"/>
      <point x="421" y="369"/>
      <point x="372" y="449"/>
      <point x="294" y="449" type="curve" smooth="yes"/>
      <point x="249" y="449"/>
      <point x="210" y="433"/>
      <point x="177" y="400" type="curve"/>
      <point x="147" y="413" type="line"/>
      <point x="196" y="472"/>
      <point x="246" y="496"/>
      <point x="293" y="496" type="curve" smooth="yes"/>
      <point x="424" y="496"/>
      <point x="517" y="390"/>
      <point x="517" y="240" type="curve" smooth="yes"/>
      <point x="517" y="90"/>
      <point x="424" y="-16"/>
      <point x="293" y="-16" type="curve" smooth="yes"/>
      <point x="259" y="-16"/>
      <point x="199" y="-7"/>
      <point x="177" y="2" type="curve" smooth="yes"/>
    </contour>
    <contour>
      <point x="178" y="410" type="line"/>
      <point x="178" y="-144" type="line"/>
      <point x="242" y="-168" type="line"/>
      <point x="242" y="-192" type="line"/>
      <point x="30" y="-192" type="line"/>
      <point x="30" y="-168" type="line"/>
      <point x="94" y="-144" type="line"/>
      <point x="94" y="432" type="line"/>
      <point x="30" y="456" type="line"/>
      <point x="30" y="480" type="line"/>
      <point x="166" y="480" type="line"/>
      <point x="166" y="426" type="line"/>
    </contour>
  </outline>
</glyph>
<glyph name="q" format="2">
  <advance width="551"/>
  <unicode hex="0071"/>
  <outline>
    <contour>
      <point x="372" y="-144" type="line"/>
      <point x="308" y="-168" type="line"/>
      <point x="308" y="-192" type="line"/>
      <point x="520" y="-192" type="line"/>
      <point x="520" y="-168" type="line"/>
      <point x="456" y="-144" type="line"/>
      <point x="456" y="432" type="line"/>
      <point x="520" y="456" type="line"/>
      <point x="520" y="480" type="line"/>
      <point x="372" y="480" type="line"/>
    </contour>
    <contour>
      <point x="380" y="477" type="line"/>
      <point x="372" y="480" type="line" smooth="yes"/>
      <point x="350" y="489"/>
      <point x="290" y="498"/>
      <point x="256" y="498" type="curve" smooth="yes"/>
      <point x="125" y="498"/>
      <point x="32" y="392"/>
      <point x="32" y="242" type="curve" smooth="yes"/>
      <point x="32" y="92"/>
      <point x="125" y="-14"/>
      <point x="256" y="-14" type="curve" smooth="yes"/>
      <point x="303" y="-14"/>
      <point x="353" y="10"/>
      <point x="383" y="46" type="curve"/>
      <point x="372" y="82" type="line"/>
      <point x="339" y="49"/>
      <point x="300" y="33"/>
      <point x="255" y="33" type="curve" smooth="yes"/>
      <point x="177" y="33"/>
      <point x="128" y="113"/>
      <point x="128" y="242" type="curve" smooth="yes"/>
      <point x="128" y="370"/>
      <point x="176" y="449"/>
      <point x="255" y="449" type="curve" smooth="yes"/>
      <point x="307" y="449"/>
      <point x="333" y="436"/>
      <point x="383" y="383" type="curve"/>
    </contour>
  </outline>
</glyph>
<glyph name="r" format="2">
  <advance width="397"/>
  <unicode hex="0072"/>
  <outline>
    <contour>
      <point x="247" y="24" type="line"/>
      <point x="183" y="48" type="line"/>
      <point x="183" y="272" type="line" smooth="yes"/>
      <point x="183" y="370"/>
      <point x="241" y="418"/>
      <point x="277" y="430" type="curve"/>
      <point x="281" y="404"/>
      <point x="303" y="384"/>
      <point x="331" y="384" type="curve" smooth="yes"/>
      <point x="363" y="384"/>
      <point x="387" y="408"/>
      <point x="387" y="440" type="curve" smooth="yes"/>
      <point x="387" y="472"/>
      <point x="363" y="496"/>
      <point x="331" y="496" type="curve" smooth="yes"/>
      <point x="277" y="496"/>
      <point x="203" y="468"/>
      <point x="171" y="378" type="curve"/>
      <point x="171" y="480" type="line"/>
      <point x="35" y="480" type="line"/>
      <point x="35" y="456" type="line"/>
      <point x="99" y="432" type="line"/>
      <point x="99" y="48" type="line"/>
      <point x="35" y="24" type="line"/>
      <point x="35" y="0" type="line"/>
      <point x="247" y="0" type="line"/>
    </contour>
  </outline>
</glyph>
<glyph name="s" format="2">
  <advance width="408"/>
  <unicode hex="0073"/>
  <outline>
    <contour>
      <point x="216" y="-16" type="curve" smooth="yes"/>
      <point x="313" y="-16"/>
      <point x="368" y="46"/>
      <point x="368" y="128" type="curve" smooth="yes"/>
      <point x="368.0" y="192.61538461538464"/>
      <point x="323" y="239"/>
      <point x="253" y="268" type="curve" smooth="yes"/>
      <point x="176" y="300" type="line" smooth="yes"/>
      <point x="131" y="319"/>
      <point x="114.0" y="344.0"/>
      <point x="114" y="381" type="curve" smooth="yes"/>
      <point x="114" y="419"/>
      <point x="142" y="447"/>
      <point x="184" y="447" type="curve"/>
      <point x="248.0" y="447.0"/>
      <point x="295.0" y="396.0"/>
      <point x="307" y="324" type="curve"/>
      <point x="339" y="324" type="line"/>
      <point x="339" y="484" type="line"/>
      <point x="315" y="484" type="line"/>
      <point x="289" y="458" type="line"/>
      <point x="263.0" y="478.0"/>
      <point x="229.0" y="496.0"/>
      <point x="184" y="496" type="curve"/>
      <point x="103" y="496.0"/>
      <point x="43.0" y="431.0"/>
      <point x="43" y="348" type="curve" smooth="yes"/>
      <point x="43.0" y="292.0"/>
      <point x="84" y="245"/>
      <point x="147" y="219" type="curve" smooth="yes"/>
      <point x="224" y="187" type="line" smooth="yes"/>
      <point x="276" y="165"/>
      <point x="296.0" y="145"/>
      <point x="296" y="104" type="curve" smooth="yes"/>
      <point x="296.0" y="60"/>
      <point x="273.2875" y="31.0"/>
      <point x="217" y="31" type="curve" smooth="yes"/>
      <point x="151.54861111111111" y="31.0"/>
      <point x="92.0" y="96.99999999999999"/>
      <point x="72" y="192" type="curve"/>
      <point x="40" y="192" type="line"/>
      <point x="40" y="0" type="line"/>
      <point x="64" y="0" type="line"/>
      <point x="100" y="36" type="line"/>
      <point x="134" y="3"/>
      <point x="178" y="-16"/>
    </contour>
  </outline>
</glyph>
<glyph name="t" format="2">
  <advance width="318"/>
  <unicode hex="0074"/>
  <outline>
    <contour>
      <point x="186" y="-16" type="curve" smooth="yes"/>
      <point x="250" y="-16"/>
      <point x="298" y="32"/>
      <point x="298" y="96" type="curve"/>
      <point x="266" y="96" type="line"/>
      <point x="266" y="72"/>
      <point x="242" y="48"/>
      <point x="214" y="48" type="curve" smooth="yes"/>
      <point x="186" y="48"/>
      <point x="166" y="72"/>
      <point x="166" y="96" type="curve" smooth="yes"/>
      <point x="166" y="432" type="line"/>
      <point x="278" y="432" type="line"/>
      <point x="278" y="480" type="line"/>
      <point x="166" y="480" type="line"/>
      <point x="166" y="632" type="line"/>
      <point x="122" y="632" type="line"/>
      <point x="122" y="560"/>
      <point x="90" y="480"/>
      <point x="10" y="480" type="curve"/>
      <point x="10" y="432" type="line"/>
      <point x="82" y="432" type="line"/>
      <point x="82" y="96" type="line" smooth="yes"/>
      <point x="82" y="32"/>
      <point x="126" y="-16"/>
    </contour>
  </outline>
</glyph>
<glyph name="y" format="2">
  <advance width="508"/>
  <unicode hex="0079"/>
  <outline>
    <contour>
      <point x="107" y="-208" type="curve" smooth="yes"/>
      <point x="167" y="-208"/>
      <point x="203" y="-202"/>
      <point x="237" y="-112" type="curve" smooth="yes"/>
      <point x="439" y="432" type="line"/>
      <point x="503" y="456" type="line"/>
      <point x="503" y="480" type="line"/>
      <point x="325" y="480" type="line"/>
      <point x="325" y="456" type="line"/>
      <point x="389" y="432" type="line"/>
      <point x="279" y="132" type="line"/>
      <point x="167" y="432" type="line"/>
      <point x="231" y="456" type="line"/>
      <point x="231" y="480" type="line"/>
      <point x="15" y="480" type="line"/>
      <point x="15" y="456" type="line"/>
      <point x="79" y="432" type="line"/>
      <point x="235" y="14" type="line"/>
      <point x="187" y="-112" type="line" smooth="yes"/>
      <point x="175" y="-144"/>
      <point x="159" y="-160"/>
      <point x="143" y="-160" type="curve" smooth="yes"/>
      <point x="137" y="-160"/>
      <point x="129" y="-160"/>
      <point x="123" y="-158" type="curve"/>
      <point x="127" y="-150"/>
      <point x="127" y="-144"/>
      <point x="127" y="-136" type="curve" smooth="yes"/>
      <point x="127" y="-104"/>
      <point x="103" y="-80"/>
      <point x="71" y="-80" type="curve" smooth="yes"/>
      <point x="39" y="-80"/>
      <point x="15" y="-104"/>
      <point x="15" y="-136" type="curve" smooth="yes"/>
      <point x="15" y="-184"/>
      <point x="63" y="-208"/>
    </contour>
  </outline>
</glyph>
<glyph name="logicalnot" format="2">
  <advance width="602"/>
  <unicode hex="00AC"/>
  <outline>
    <contour>
      <point x="544" y="176" type="line"/>
      <point x="544" y="448" type="line"/>
      <point x="64" y="448" type="line"/>
      <point x="64" y="384" type="line"/>
      <point x="480" y="384" type="line"/>
      <point x="480" y="176" type="line"/>
    </contour>
  </outline>
</glyph>
